<svg width="30" height="31" viewBox="0 0 30 31" fill="none" xmlns="http://www.w3.org/2000/svg">
<path d="M15 27.7135C21.9037 27.7135 27.5 22.1173 27.5 15.2135C27.5 8.30975 21.9037 2.7135 15 2.7135C8.09625 2.7135 2.5 8.30975 2.5 15.2135C2.5 22.1173 8.09625 27.7135 15 27.7135Z" stroke="black" stroke-width="2.5" stroke-linecap="round" stroke-linejoin="round"/>
<path d="M15.01 13.3485C14.5127 13.3485 14.0358 13.546 13.6842 13.8977C13.3326 14.2493 13.135 14.7262 13.135 15.2235C13.135 15.7208 13.3326 16.1977 13.6842 16.5493C14.0358 16.901 14.5127 17.0985 15.01 17.0985C15.5073 17.0985 15.9842 16.901 16.3358 16.5493C16.6875 16.1977 16.885 15.7208 16.885 15.2235C16.885 14.7262 16.6875 14.2493 16.3358 13.8977C15.9842 13.546 15.5073 13.3485 15.01 13.3485ZM15.01 13.3485V8.9635M18.7688 18.9885L16.3325 16.5535" stroke="black" stroke-width="2.5" stroke-linecap="round" stroke-linejoin="round"/>
</svg>
