<svg width="51" height="50" viewBox="0 0 51 50" fill="none" xmlns="http://www.w3.org/2000/svg">
    <path
        d="M17.4643 25C18.5196 25 19.5645 24.7922 20.5394 24.3883C21.5144 23.9845 22.4002 23.3926 23.1464 22.6464C23.8926 21.9002 24.4845 21.0144 24.8883 20.0394C25.2922 19.0645 25.5 18.0196 25.5 16.9643C25.5 15.909 25.2922 14.8641 24.8883 13.8892C24.4845 12.9142 23.8926 12.0284 23.1464 11.2822C22.4002 10.536 21.5144 9.9441 20.5394 9.54027C19.5645 9.13644 18.5196 8.92859 17.4643 8.92859C15.3331 8.92859 13.2892 9.77521 11.7822 11.2822C10.2752 12.7892 9.42858 14.8331 9.42858 16.9643C9.42858 19.0955 10.2752 21.1394 11.7822 22.6464C13.2892 24.1534 15.3331 25 17.4643 25ZM42.4643 18.75C42.4643 19.5708 42.3026 20.3835 41.9885 21.1418C41.6745 21.9001 41.2141 22.5891 40.6337 23.1694C40.0534 23.7498 39.3644 24.2102 38.6061 24.5243C37.8478 24.8384 37.0351 25 36.2143 25C35.3935 25 34.5808 24.8384 33.8225 24.5243C33.0642 24.2102 32.3752 23.7498 31.7949 23.1694C31.2145 22.5891 30.7541 21.9001 30.4401 21.1418C30.126 20.3835 29.9643 19.5708 29.9643 18.75C29.9643 17.0924 30.6228 15.5027 31.7949 14.3306C32.967 13.1585 34.5567 12.5 36.2143 12.5C37.8719 12.5 39.4616 13.1585 40.6337 14.3306C41.8058 15.5027 42.4643 17.0924 42.4643 18.75ZM4.07144 32.5893C4.07144 31.5237 4.49475 30.5017 5.24824 29.7482C6.00174 28.9948 7.0237 28.5714 8.0893 28.5714H26.0964C25.0756 29.3636 24.2498 30.379 23.6821 31.5397C23.1144 32.7005 22.82 33.9758 22.8214 35.2679C22.8214 37.6375 23.7929 39.7804 25.3607 41.3197C23.4607 42.2393 20.9036 42.8572 17.4643 42.8572C4.07144 42.8572 4.07144 33.4822 4.07144 33.4822V32.5893ZM31.3036 31.25C30.238 31.25 29.216 31.6733 28.4625 32.4268C27.709 33.1803 27.2857 34.2023 27.2857 35.2679C27.2857 36.3335 27.709 37.3554 28.4625 38.1089C29.216 38.8624 30.238 39.2857 31.3036 39.2857H32.1964C32.5516 39.2857 32.8923 39.4268 33.1435 39.678C33.3946 39.9292 33.5357 40.2698 33.5357 40.625C33.5357 40.9802 33.3946 41.3209 33.1435 41.572C32.8923 41.8232 32.5516 41.9643 32.1964 41.9643H31.3036C29.5276 41.9643 27.8243 41.2588 26.5685 40.003C25.3127 38.7471 24.6072 37.0439 24.6072 35.2679C24.6072 33.4919 25.3127 31.7886 26.5685 30.5328C27.8243 29.277 29.5276 28.5714 31.3036 28.5714H32.1964C32.5516 28.5714 32.8923 28.7125 33.1435 28.9637C33.3946 29.2149 33.5357 29.5555 33.5357 29.9107C33.5357 30.2659 33.3946 30.6066 33.1435 30.8577C32.8923 31.1089 32.5516 31.25 32.1964 31.25H31.3036ZM29.9643 35.2679C29.9643 34.9127 30.1054 34.572 30.3566 34.3209C30.6077 34.0697 30.9484 33.9286 31.3036 33.9286H41.125C41.4802 33.9286 41.8209 34.0697 42.072 34.3209C42.3232 34.572 42.4643 34.9127 42.4643 35.2679C42.4643 35.6231 42.3232 35.9637 42.072 36.2149C41.8209 36.4661 41.4802 36.6072 41.125 36.6072H31.3036C30.9484 36.6072 30.6077 36.4661 30.3566 36.2149C30.1054 35.9637 29.9643 35.6231 29.9643 35.2679ZM41.125 39.2857C42.1906 39.2857 43.2126 38.8624 43.9661 38.1089C44.7196 37.3554 45.1429 36.3335 45.1429 35.2679C45.1429 34.2023 44.7196 33.1803 43.9661 32.4268C43.2126 31.6733 42.1906 31.25 41.125 31.25H40.2322C39.877 31.25 39.5363 31.1089 39.2851 30.8577C39.034 30.6066 38.8929 30.2659 38.8929 29.9107C38.8929 29.5555 39.034 29.2149 39.2851 28.9637C39.5363 28.7125 39.877 28.5714 40.2322 28.5714H41.125C42.901 28.5714 44.6043 29.277 45.8601 30.5328C47.1159 31.7886 47.8214 33.4919 47.8214 35.2679C47.8214 37.0439 47.1159 38.7471 45.8601 40.003C44.6043 41.2588 42.901 41.9643 41.125 41.9643H40.2322C39.877 41.9643 39.5363 41.8232 39.2851 41.572C39.034 41.3209 38.8929 40.9802 38.8929 40.625C38.8929 40.2698 39.034 39.9292 39.2851 39.678C39.5363 39.4268 39.877 39.2857 40.2322 39.2857H41.125Z"
        fill="white" />
</svg>