<svg width="40" height="41" viewBox="0 0 40 41" fill="none" xmlns="http://www.w3.org/2000/svg">
<rect y="0.213501" width="40" height="40" rx="2" fill="#7C7C7C"/>
<path d="M21.125 14.5573V9.2135H16.3438C15.6724 9.2135 15.0286 9.48019 14.5539 9.95489C14.0792 10.4296 13.8125 11.0734 13.8125 11.7448V26.3698C13.8125 27.0411 14.0792 27.6849 14.5539 28.1596C15.0286 28.6343 15.6724 28.901 16.3438 28.901H26.4688C26.8012 28.901 27.1303 28.8355 27.4374 28.7083C27.7445 28.5811 28.0236 28.3947 28.2586 28.1596C28.4937 27.9246 28.6801 27.6455 28.8073 27.3384C28.9345 27.0313 29 26.7022 29 26.3698V17.0885H23.6562C22.9849 17.0885 22.3411 16.8218 21.8664 16.3471C21.3917 15.8724 21.125 15.2286 21.125 14.5573ZM22.8125 14.5573V9.776L28.4375 15.401H23.6562C23.4325 15.401 23.2179 15.3121 23.0596 15.1539C22.9014 14.9956 22.8125 14.781 22.8125 14.5573ZM12.6909 12.1689C12.1964 12.3429 11.7682 12.6661 11.4653 13.094C11.1624 13.5218 10.9999 14.0331 11 14.5573V26.3743C11 27.7915 11.563 29.1507 12.5651 30.1529C13.5673 31.155 14.9265 31.718 16.3438 31.718H23.6495C24.1731 31.7182 24.6838 31.556 25.1114 31.2537C25.5389 30.9515 25.8622 30.5241 26.0367 30.0305H16.3438C15.3741 30.0305 14.4441 29.6453 13.7584 28.9596C13.0727 28.2739 12.6875 27.3439 12.6875 26.3743L12.6909 12.1689Z" fill="white"/>
</svg>
