<svg width="51" height="50" viewBox="0 0 51 50" fill="none" xmlns="http://www.w3.org/2000/svg">
    <path
        d="M4.66667 34.3666V14.2312C4.66667 13.7159 4.80208 13.2375 5.07292 12.7958C5.34375 12.3541 5.72361 12.0472 6.2125 11.875C7.43611 11.3361 8.70903 10.9451 10.0313 10.7021C11.3535 10.459 12.6903 10.3375 14.0417 10.3375C16.3181 10.3375 18.3389 10.6257 20.1042 11.2021C21.8681 11.7784 23.6722 12.6347 25.5167 13.7708C25.8444 13.9514 26.0972 14.1944 26.275 14.5C26.4528 14.8055 26.5417 15.1562 26.5417 15.5521V36.0812C28.2306 35.1396 29.934 34.459 31.6521 34.0396C33.3701 33.6201 35.1389 33.4118 36.9583 33.4146C38.2083 33.4146 39.3319 33.4916 40.3292 33.6458C41.3264 33.8 42.2063 34.0055 42.9688 34.2625C43.2882 34.3958 43.582 34.3757 43.85 34.2021C44.1181 34.0284 44.2514 33.7548 44.25 33.3812V12.6958C44.25 12.4 44.3493 12.1527 44.5479 11.9541C44.7465 11.7555 44.9944 11.6555 45.2917 11.6541C45.5889 11.6527 45.8368 11.7527 46.0354 11.9541C46.234 12.1555 46.3333 12.4027 46.3333 12.6958V34.3666C46.3333 35.2194 45.975 35.8743 45.2583 36.3312C44.5403 36.7868 43.7764 36.8639 42.9667 36.5625C42.0028 36.1875 41.0181 35.9166 40.0125 35.75C39.0069 35.5819 37.9889 35.4979 36.9583 35.4979C35.1764 35.4979 33.4319 35.7291 31.725 36.1916C30.0167 36.6555 28.3931 37.3389 26.8542 38.2416C26.6569 38.3611 26.4403 38.4514 26.2042 38.5125C25.9681 38.5736 25.7333 38.6034 25.5 38.6021C25.2667 38.6007 25.0326 38.5708 24.7979 38.5125C24.5632 38.4541 24.3458 38.3639 24.1458 38.2416C22.6069 37.3389 20.984 36.6555 19.2771 36.1916C17.5701 35.7277 15.825 35.4965 14.0417 35.4979C12.9583 35.4979 11.8931 35.5882 10.8458 35.7687C9.8 35.9507 8.78195 36.2423 7.79167 36.6437C7.03611 36.9451 6.32639 36.8541 5.6625 36.3708C4.99861 35.8875 4.66667 35.2194 4.66667 34.3666ZM32.15 27.4208V9.56247C32.15 9.19025 32.2604 8.85553 32.4813 8.5583C32.7021 8.25969 32.9806 8.05483 33.3167 7.94372L37.0104 6.76455C37.416 6.61733 37.7896 6.68191 38.1313 6.9583C38.4715 7.23608 38.6417 7.58122 38.6417 7.99372V25.8521C38.6417 26.2229 38.5313 26.5569 38.3104 26.8541C38.091 27.1527 37.8125 27.3576 37.475 27.4687L33.7813 28.6479C33.3757 28.7951 33.0028 28.7305 32.6625 28.4541C32.3208 28.1764 32.15 27.8333 32.15 27.4208Z"
        fill="white" />
</svg>