<svg width="30" height="31" viewBox="0 0 30 31" fill="none" xmlns="http://www.w3.org/2000/svg">
<path fill-rule="evenodd" clip-rule="evenodd" d="M18.725 25.6797V17.9347H21.325L21.714 14.9167H18.724V12.9897C18.724 12.1157 18.967 11.5197 20.221 11.5197H21.819V8.81969C21.0452 8.73654 20.2673 8.69648 19.489 8.69969C17.185 8.69969 15.608 10.1067 15.608 12.6897V14.9167H13V17.9347H15.607V25.6797H6.104C5.494 25.6797 5 25.1857 5 24.5757V6.78369C5 6.17369 5.494 5.67969 6.104 5.67969H23.896C24.506 5.67969 25 6.17369 25 6.78369V24.5757C25 25.1857 24.506 25.6797 23.896 25.6797H18.725Z" fill="#7C7CE0"/>
</svg>
