<svg width="60" height="60" viewBox="0 0 60 60" fill="none" xmlns="http://www.w3.org/2000/svg">
<path d="M16.33 11.875C15.185 11.875 14.195 11.875 13.4175 11.95C12.65 12.02 11.705 12.1875 10.935 12.82C10.4482 13.2225 10.056 13.7273 9.78639 14.2985C9.51677 14.8697 9.3763 15.4933 9.37498 16.125C9.36998 17.1 9.80498 17.94 10.225 18.605C10.645 19.28 11.2525 20.08 11.9625 21.015L18.4525 29.57C19.0825 30.4 19.24 30.62 19.35 30.845C19.4633 31.0783 19.5458 31.3258 19.5975 31.5875C19.6475 31.8375 19.655 32.1175 19.655 33.1725V40.5975C19.655 41.1925 19.6525 41.8325 19.83 42.4425C19.985 42.9725 20.2425 43.4675 20.5875 43.905C20.9875 44.405 21.5125 44.77 21.9925 45.0975L22.1125 45.18L24.5875 46.8875C25.0025 47.175 25.415 47.4625 25.775 47.6625C26.135 47.8625 26.745 48.1675 27.5 48.12C28.4075 48.065 29.225 47.6 29.75 46.8825C30.18 46.2925 30.275 45.635 30.31 45.225C30.345 44.81 30.345 44.3 30.345 43.78V33.1725C30.345 32.1175 30.355 31.8375 30.4025 31.5875C30.4525 31.3258 30.5358 31.0783 30.6525 30.845C30.76 30.62 30.9175 30.4 31.5475 29.57L38.0375 21.015C38.7475 20.08 39.355 19.28 39.7775 18.605C40.195 17.94 40.6275 17.1 40.625 16.125C40.6237 15.4933 40.4832 14.8697 40.2136 14.2985C39.944 13.7273 39.5518 13.2225 39.065 12.82C38.295 12.1875 37.35 12.02 36.5825 11.9475C35.805 11.875 34.815 11.875 33.67 11.875H16.33ZM13.1275 16.0975C13.1356 15.9729 13.1858 15.8548 13.27 15.7625C13.33 15.745 13.4775 15.71 13.77 15.6825C14.35 15.6275 15.16 15.625 16.42 15.625H33.58C34.84 15.625 35.65 15.625 36.23 15.6825C36.5225 15.7075 36.67 15.745 36.73 15.7625C36.805 15.845 36.8625 15.9625 36.8725 16.0975C36.8014 16.2802 36.7091 16.4539 36.5975 16.615C36.2775 17.1275 35.7725 17.795 34.9975 18.8175L34.1 20H15.9L15 18.8175C14.225 17.7925 13.72 17.1275 13.4 16.615C13.2883 16.4539 13.1985 16.2802 13.1275 16.0975ZM41.25 24.375C40.7527 24.375 40.2758 24.5725 39.9242 24.9242C39.5725 25.2758 39.375 25.7527 39.375 26.25C39.375 26.7473 39.5725 27.2242 39.9242 27.5758C40.2758 27.9275 40.7527 28.125 41.25 28.125H48.75C49.2473 28.125 49.7242 27.9275 50.0758 27.5758C50.4274 27.2242 50.625 26.7473 50.625 26.25C50.625 25.7527 50.4274 25.2758 50.0758 24.9242C49.7242 24.5725 49.2473 24.375 48.75 24.375H41.25ZM37.5 30.625C37.0027 30.625 36.5258 30.8225 36.1742 31.1742C35.8225 31.5258 35.625 32.0027 35.625 32.5C35.625 32.9973 35.8225 33.4742 36.1742 33.8258C36.5258 34.1775 37.0027 34.375 37.5 34.375H48.75C49.2473 34.375 49.7242 34.1775 50.0758 33.8258C50.4274 33.4742 50.625 32.9973 50.625 32.5C50.625 32.0027 50.4274 31.5258 50.0758 31.1742C49.7242 30.8225 49.2473 30.625 48.75 30.625H37.5ZM36.25 36.875C35.7527 36.875 35.2758 37.0725 34.9242 37.4242C34.5725 37.7758 34.375 38.2527 34.375 38.75C34.375 39.2473 34.5725 39.7242 34.9242 40.0758C35.2758 40.4275 35.7527 40.625 36.25 40.625H48.75C49.2473 40.625 49.7242 40.4275 50.0758 40.0758C50.4274 39.7242 50.625 39.2473 50.625 38.75C50.625 38.2527 50.4274 37.7758 50.0758 37.4242C49.7242 37.0725 49.2473 36.875 48.75 36.875H36.25ZM36.25 43.125C35.7527 43.125 35.2758 43.3225 34.9242 43.6742C34.5725 44.0258 34.375 44.5027 34.375 45C34.375 45.4973 34.5725 45.9742 34.9242 46.3258C35.2758 46.6775 35.7527 46.875 36.25 46.875H42.5C42.9973 46.875 43.4742 46.6775 43.8258 46.3258C44.1774 45.9742 44.375 45.4973 44.375 45C44.375 44.5027 44.1774 44.0258 43.8258 43.6742C43.4742 43.3225 42.9973 43.125 42.5 43.125H36.25Z" fill="black"/>
</svg>
