<svg width="51" height="50" viewBox="0 0 51 50" fill="none" xmlns="http://www.w3.org/2000/svg">
    <path
        d="M25.5 14.5834C23.1056 14.5818 20.7839 15.4051 18.9254 16.9148C17.0669 18.4245 15.7853 20.5283 15.2962 22.8721C14.8071 25.216 15.1403 27.6568 16.2399 29.7837C17.3395 31.9107 19.1382 33.5939 21.3333 34.55V39.5834H29.6667V34.55C31.8598 33.5923 33.6563 31.9087 34.7543 29.7823C35.8522 27.656 36.1847 25.2164 35.6959 22.8738C35.207 20.5311 33.9266 18.4282 32.0698 16.9184C30.213 15.4087 27.8931 14.5841 25.5 14.5834Z"
        fill="white" />
    <path
        d="M44.25 25H46.3333M39.0417 11.4584L41.125 9.37502M25.5 6.25002V4.16669M11.9583 11.4584L9.87501 9.37502M6.75001 25H4.66667M21.3333 45.8334H29.6667M35.9167 25C35.9161 23.1221 35.408 21.2793 34.4459 19.6666C33.4839 18.0538 32.1038 16.7311 30.4516 15.8385C28.7994 14.9458 26.9367 14.5164 25.0605 14.5956C23.1842 14.6748 21.3643 15.2598 19.7933 16.2886C18.2223 17.3174 16.9586 18.7517 16.136 20.4399C15.3134 22.128 14.9624 24.0071 15.1202 25.8783C15.278 27.7496 15.9387 29.5434 17.0324 31.0699C18.1262 32.5964 19.6122 33.7989 21.3333 34.55V39.5834H29.6667V34.55C31.5248 33.7391 33.1058 32.4036 34.216 30.7072C35.3262 29.0108 35.9173 27.0274 35.9167 25Z"
        stroke="white" stroke-width="2" stroke-linecap="round" stroke-linejoin="round" />
</svg>