<svg width="30" height="31" viewBox="0 0 30 31" fill="none" xmlns="http://www.w3.org/2000/svg">
<path d="M16.2336 3.67969C17.5835 3.68329 18.2687 3.69049 18.8603 3.70729L19.0931 3.71569C19.3619 3.72529 19.627 3.73728 19.9474 3.75168C21.2242 3.81168 22.0953 4.01327 22.8597 4.30966C23.6516 4.61444 24.3188 5.02722 24.986 5.69319C25.5964 6.29283 26.0685 7.01849 26.3695 7.81948C26.6659 8.58384 26.8675 9.455 26.9275 10.7329C26.9419 11.0521 26.9539 11.3173 26.9635 11.5873L26.9707 11.8201C26.9887 12.4104 26.9959 13.0956 26.9983 14.4455L26.9995 15.3407V16.9126C27.0024 17.7879 26.9932 18.6631 26.9719 19.5381L26.9647 19.7709C26.9551 20.0409 26.9431 20.3061 26.9287 20.6252C26.8687 21.9032 26.6647 22.7731 26.3695 23.5387C26.0685 24.3397 25.5964 25.0653 24.986 25.665C24.3863 26.2754 23.6607 26.7475 22.8597 27.0485C22.0953 27.3449 21.2242 27.5465 19.9474 27.6065L19.0931 27.6425L18.8603 27.6497C18.2687 27.6665 17.5835 27.6749 16.2336 27.6773L15.3385 27.6785H13.7677C12.8921 27.6816 12.0165 27.6724 11.1411 27.6509L10.9083 27.6437C10.6234 27.6329 10.3386 27.6205 10.0539 27.6065C8.77719 27.5465 7.90603 27.3449 7.14047 27.0485C6.33991 26.7474 5.61468 26.2752 5.01538 25.665C4.40455 25.0655 3.93197 24.3398 3.63065 23.5387C3.33427 22.7743 3.13268 21.9032 3.07268 20.6252L3.03668 19.7709L3.03068 19.5381C3.00856 18.6631 2.99856 17.7879 3.00068 16.9126V14.4455C2.99736 13.5703 3.00616 12.6951 3.02708 11.8201L3.03548 11.5873C3.04508 11.3173 3.05708 11.0521 3.07148 10.7329C3.13148 9.455 3.33307 8.58504 3.62945 7.81948C3.93147 7.01816 4.40488 6.29248 5.01658 5.69319C5.61553 5.08308 6.34034 4.61093 7.14047 4.30966C7.90603 4.01327 8.77599 3.81168 10.0539 3.75168C10.3731 3.73728 10.6395 3.72529 10.9083 3.71569L11.1411 3.70849C12.0161 3.68717 12.8913 3.67797 13.7665 3.68089L16.2336 3.67969ZM15.0001 9.67939C13.4089 9.67939 11.8828 10.3115 10.7577 11.4367C9.63249 12.5618 9.00038 14.0879 9.00038 15.6791C9.00038 17.2703 9.63249 18.7963 10.7577 19.9215C11.8828 21.0467 13.4089 21.6788 15.0001 21.6788C16.5913 21.6788 18.1173 21.0467 19.2425 19.9215C20.3677 18.7963 20.9998 17.2703 20.9998 15.6791C20.9998 14.0879 20.3677 12.5618 19.2425 11.4367C18.1173 10.3115 16.5913 9.67939 15.0001 9.67939ZM15.0001 12.0793C15.4728 12.0792 15.9409 12.1722 16.3777 12.3531C16.8145 12.5339 17.2114 12.799 17.5457 13.1332C17.88 13.4674 18.1453 13.8642 18.3262 14.3009C18.5072 14.7377 18.6004 15.2057 18.6005 15.6785C18.6006 16.1512 18.5075 16.6193 18.3267 17.0561C18.1459 17.4929 17.8808 17.8898 17.5466 18.2241C17.2123 18.5584 16.8155 18.8237 16.3788 19.0047C15.9421 19.1856 15.474 19.2788 15.0013 19.2789C14.0465 19.2789 13.1309 18.8996 12.4558 18.2245C11.7807 17.5494 11.4015 16.6338 11.4015 15.6791C11.4015 14.7244 11.7807 13.8087 12.4558 13.1336C13.1309 12.4585 14.0465 12.0793 15.0013 12.0793M21.301 7.87948C20.9032 7.87948 20.5216 8.0375 20.2404 8.31879C19.9591 8.60008 19.801 8.9816 19.801 9.3794C19.801 9.77721 19.9591 10.1587 20.2404 10.44C20.5216 10.7213 20.9032 10.8793 21.301 10.8793C21.6988 10.8793 22.0803 10.7213 22.3616 10.44C22.6429 10.1587 22.8009 9.77721 22.8009 9.3794C22.8009 8.9816 22.6429 8.60008 22.3616 8.31879C22.0803 8.0375 21.6988 7.87948 21.301 7.87948Z" fill="#7C7CE0"/>
</svg>
