<svg width="40" height="41" viewBox="0 0 40 41" fill="none" xmlns="http://www.w3.org/2000/svg">
<rect y="0.213501" width="40" height="40" rx="2" fill="#C738AC"/>
<path fill-rule="evenodd" clip-rule="evenodd" d="M20 8.2135C16.7408 8.2135 16.3328 8.2279 15.0524 8.2855C13.7756 8.3443 12.9032 8.5471 12.14 8.8435C11.339 9.14448 10.6133 9.61667 10.0136 10.2271C9.40317 10.8268 8.93098 11.5525 8.63 12.3535C8.3336 13.1167 8.1308 13.9891 8.072 15.2659C8.0132 16.5463 8 16.9543 8 20.2135C8 23.4727 8.0132 23.8807 8.072 25.1611C8.1308 26.4379 8.3336 27.3103 8.63 28.0735C8.93098 28.8745 9.40317 29.6002 10.0136 30.1999C10.6133 30.8103 11.339 31.2825 12.14 31.5835C12.9032 31.8799 13.7756 32.0827 15.0524 32.1415C16.3328 32.1991 16.7408 32.2135 20 32.2135C23.2592 32.2135 23.6672 32.1991 24.9476 32.1415C26.2244 32.0827 27.0968 31.8799 27.86 31.5835C28.661 31.2825 29.3867 30.8103 29.9864 30.1999C30.5968 29.6002 31.069 28.8745 31.37 28.0735C31.6664 27.3103 31.8692 26.4379 31.928 25.1611C31.9856 23.8807 32 23.4727 32 20.2135C32 16.9543 31.9856 16.5463 31.928 15.2659C31.8692 13.9891 31.6664 13.1167 31.37 12.3535C31.069 11.5525 30.5968 10.8268 29.9864 10.2271C29.3867 9.61667 28.661 9.14448 27.86 8.8435C27.0968 8.5471 26.2244 8.3443 24.9476 8.2855C23.6672 8.2279 23.2592 8.2135 20 8.2135ZM20 10.3759C23.204 10.3759 23.5832 10.3879 24.848 10.4455C26.0192 10.4995 26.654 10.6939 27.0776 10.8583C27.6368 11.0767 28.0376 11.3371 28.4576 11.7559C28.8776 12.1759 29.1368 12.5767 29.3552 13.1359C29.5184 13.5595 29.7152 14.1943 29.768 15.3643C29.8256 16.6303 29.8376 17.0083 29.8376 20.2135C29.8376 23.4175 29.8256 23.7967 29.768 25.0615C29.714 26.2327 29.5184 26.8675 29.3552 27.2911C29.1628 27.8124 28.8561 28.2839 28.4576 28.6711C28.0376 29.0911 27.6368 29.3503 27.0776 29.5687C26.654 29.7319 26.0192 29.9287 24.8492 29.9815C23.5844 30.0391 23.2052 30.0511 20 30.0511C16.796 30.0511 16.4156 30.0391 15.152 29.9815C13.9808 29.9275 13.346 29.7319 12.9224 29.5687C12.4011 29.3763 11.9296 29.0696 11.5424 28.6711C11.1439 28.2839 10.8372 27.8124 10.6448 27.2911C10.4804 26.8675 10.2848 26.2327 10.232 25.0627C10.1744 23.7967 10.1624 23.4187 10.1624 20.2135C10.1624 17.0095 10.1744 16.6303 10.232 15.3655C10.286 14.1943 10.4804 13.5595 10.6448 13.1359C10.8632 12.5767 11.1236 12.1759 11.5424 11.7559C11.9624 11.3359 12.3632 11.0767 12.9224 10.8583C13.346 10.6939 13.9808 10.4983 15.1508 10.4455C16.4168 10.3879 16.7948 10.3759 20 10.3759ZM20 24.2131C18.9392 24.2131 17.9219 23.7917 17.1719 23.0416C16.4218 22.2916 16.0004 21.2743 16.0004 20.2135C16.0004 19.1527 16.4218 18.1354 17.1719 17.3854C17.9219 16.6353 18.9392 16.2139 20 16.2139C21.0608 16.2139 22.0781 16.6353 22.8281 17.3854C23.5782 18.1354 23.9996 19.1527 23.9996 20.2135C23.9996 21.2743 23.5782 22.2916 22.8281 23.0416C22.0781 23.7917 21.0608 24.2131 20 24.2131ZM20 14.0515C19.1908 14.0515 18.3895 14.2109 17.6419 14.5206C16.8943 14.8302 16.215 15.2841 15.6428 15.8563C15.0706 16.4285 14.6167 17.1078 14.3071 17.8554C13.9974 18.603 13.838 19.4043 13.838 20.2135C13.838 21.0227 13.9974 21.824 14.3071 22.5716C14.6167 23.3192 15.0706 23.9985 15.6428 24.5707C16.215 25.1429 16.8943 25.5968 17.6419 25.9064C18.3895 26.2161 19.1908 26.3755 20 26.3755C21.6343 26.3755 23.2016 25.7263 24.3572 24.5707C25.5128 23.4151 26.162 21.8478 26.162 20.2135C26.162 18.5792 25.5128 17.0119 24.3572 15.8563C23.2016 14.7007 21.6343 14.0515 20 14.0515ZM27.8456 13.8079C27.8456 13.997 27.8084 14.1843 27.736 14.359C27.6636 14.5337 27.5576 14.6924 27.4238 14.8261C27.2901 14.9599 27.1314 15.0659 26.9567 15.1383C26.782 15.2107 26.5947 15.2479 26.4056 15.2479C26.2165 15.2479 26.0292 15.2107 25.8545 15.1383C25.6798 15.0659 25.5211 14.9599 25.3874 14.8261C25.2537 14.6924 25.1476 14.5337 25.0752 14.359C25.0028 14.1843 24.9656 13.997 24.9656 13.8079C24.9656 13.426 25.1173 13.0597 25.3874 12.7897C25.6574 12.5196 26.0237 12.3679 26.4056 12.3679C26.7875 12.3679 27.1538 12.5196 27.4238 12.7897C27.6939 13.0597 27.8456 13.426 27.8456 13.8079Z" fill="white"/>
</svg>
