<svg width="20" height="20" viewBox="0 0 20 20" fill="none" xmlns="http://www.w3.org/2000/svg">
<path d="M15 15C16.0375 15.3533 16.6667 15.8183 16.6667 16.3275C16.6667 17.4358 13.6817 18.3333 10 18.3333C6.31834 18.3333 3.33334 17.435 3.33334 16.3275C3.33334 15.8183 3.96251 15.3533 5.00001 15M12.5 7.91666C12.5 8.57971 12.2366 9.21559 11.7678 9.68443C11.2989 10.1533 10.6631 10.4167 10 10.4167C9.33697 10.4167 8.70108 10.1533 8.23224 9.68443C7.7634 9.21559 7.50001 8.57971 7.50001 7.91666C7.50001 7.25362 7.7634 6.61774 8.23224 6.1489C8.70108 5.68006 9.33697 5.41666 10 5.41666C10.6631 5.41666 11.2989 5.68006 11.7678 6.1489C12.2366 6.61774 12.5 7.25362 12.5 7.91666Z" stroke="black" stroke-width="1.5" stroke-linecap="round" stroke-linejoin="round"/>
<path d="M10 1.66666C13.3825 1.66666 16.25 4.52333 16.25 7.98916C16.25 11.51 13.3358 13.9808 10.6442 15.6608C10.4482 15.7736 10.2261 15.8329 10 15.8329C9.77392 15.8329 9.55179 15.7736 9.35583 15.6608C6.66917 13.9642 3.75 11.5225 3.75 7.98916C3.75 4.52333 6.6175 1.66666 10 1.66666Z" stroke="black" stroke-width="1.5" stroke-linecap="round" stroke-linejoin="round"/>
</svg>
