<svg width="48" height="48" viewBox="0 0 48 49" fill="none" xmlns="http://www.w3.org/2000/svg">
    <rect y="0.106689" width="48" height="48" rx="24" fill="#724CB4" />
    <path
        d="M22.8203 33.7472C28.7962 33.7472 33.6405 28.9029 33.6405 22.927C33.6405 16.951 28.7962 12.1067 22.8203 12.1067C16.8443 12.1067 12 16.951 12 22.927C12 28.9029 16.8443 33.7472 22.8203 33.7472Z"
        stroke="white" stroke-width="4" stroke-linejoin="round" />
    <path
        d="M26.4208 18.6899C25.9484 18.2165 25.3871 17.8411 24.7692 17.5852C24.1514 17.3293 23.489 17.1979 22.8202 17.1986C22.1514 17.1979 21.4891 17.3293 20.8712 17.5852C20.2533 17.8411 19.692 18.2165 19.2196 18.6899M30.5994 30.7061L36 36.1067"
        stroke="white" stroke-width="4" stroke-linecap="round" stroke-linejoin="round" />
</svg>