<svg width="51" height="50" viewBox="0 0 51 50" fill="none" xmlns="http://www.w3.org/2000/svg">
    <path
        d="M16.125 8.33331C13.0861 8.33331 10.1716 9.54053 8.02273 11.6894C5.87387 13.8382 4.66666 16.7527 4.66666 19.7916C4.66666 20.8333 4.85416 21.875 5.12499 22.9166H13.625L16.2708 15.8958C16.8958 14.2291 19.3542 14.0625 20.1458 15.8958L24.4583 27.0833L25.6875 24.125C25.9583 23.4375 26.6875 22.9166 27.5833 22.9166H45.875C46.1458 21.875 46.3333 20.8333 46.3333 19.7916C46.3333 16.7527 45.1261 13.8382 42.9773 11.6894C40.8284 9.54053 37.9139 8.33331 34.875 8.33331C31 8.33331 27.5833 10.2708 25.5 13.2083C23.4167 10.2708 20 8.33331 16.125 8.33331ZM6.74999 26.0416C6.19746 26.0416 5.66755 26.2611 5.27685 26.6518C4.88615 27.0425 4.66666 27.5724 4.66666 28.125C4.66666 28.6775 4.88615 29.2074 5.27685 29.5981C5.66755 29.9888 6.19746 30.2083 6.74999 30.2083H11.8333L23.4167 41.6666C25.5 43.5416 25.5 43.5416 27.5833 41.6666L39.1667 30.2083H44.25C44.8025 30.2083 45.3324 29.9888 45.7231 29.5981C46.1138 29.2074 46.3333 28.6775 46.3333 28.125C46.3333 27.5724 46.1138 27.0425 45.7231 26.6518C45.3324 26.2611 44.8025 26.0416 44.25 26.0416H28.4167L26.4792 30.8333C25.6458 32.9375 23.25 32.6458 22.4792 30.8958L18.2083 19.7916L16.2083 24.6458C15.8958 25.4375 15.1875 26.0416 14.25 26.0416H6.74999Z"
        fill="white" />
</svg>