<svg width="40" height="41" viewBox="0 0 40 41" fill="none" xmlns="http://www.w3.org/2000/svg">
<rect y="0.213501" width="40" height="40" rx="2" fill="#176E0B"/>
<path d="M28.5025 11.7231C27.3967 10.6065 26.0796 9.72106 24.6282 9.11853C23.1767 8.51599 21.6198 8.20836 20.0482 8.21357C13.4633 8.21357 8.09648 13.5804 8.09648 20.1653C8.09648 22.2759 8.65126 24.3261 9.68844 26.1352L8 32.3342L14.3317 30.6698C16.0804 31.6226 18.0462 32.1291 20.0482 32.1291C26.6332 32.1291 32 26.7623 32 20.1774C32 16.9814 30.7578 13.9784 28.5025 11.7231ZM20.0482 30.103C18.2633 30.103 16.5146 29.6206 14.9829 28.7161L14.6211 28.499L10.8583 29.4879L11.8593 25.8216L11.6181 25.4477C10.6262 23.8643 10.0996 22.0338 10.0985 20.1653C10.0985 14.6899 14.5608 10.2276 20.0362 10.2276C22.6894 10.2276 25.1859 11.2648 27.0553 13.1462C27.981 14.0675 28.7147 15.1634 29.2136 16.3703C29.7126 17.5773 29.9669 18.8714 29.9618 20.1774C29.9859 25.6528 25.5236 30.103 20.0482 30.103ZM25.4995 22.6739C25.198 22.5291 23.7266 21.8055 23.4613 21.697C23.1839 21.6005 22.991 21.5523 22.7859 21.8417C22.5809 22.1432 22.0141 22.8186 21.8452 23.0116C21.6764 23.2166 21.4955 23.2407 21.194 23.0839C20.8925 22.9392 19.9276 22.6136 18.794 21.6005C17.9015 20.8045 17.3106 19.8276 17.1296 19.5261C16.9608 19.2246 17.1055 19.0678 17.2623 18.9111C17.395 18.7784 17.5638 18.5613 17.7085 18.3925C17.8533 18.2236 17.9136 18.091 18.01 17.898C18.1065 17.693 18.0583 17.5241 17.9859 17.3794C17.9136 17.2347 17.3106 15.7633 17.0693 15.1603C16.8281 14.5814 16.5749 14.6538 16.394 14.6417H15.8151C15.61 14.6417 15.2965 14.7141 15.0191 15.0156C14.7538 15.3171 13.9819 16.0407 13.9819 17.5121C13.9819 18.9834 15.0553 20.4065 15.2 20.5995C15.3447 20.8045 17.3106 23.8196 20.3015 25.11C21.0131 25.4236 21.5678 25.6045 22.002 25.7372C22.7136 25.9663 23.3648 25.9301 23.8834 25.8578C24.4623 25.7734 25.6563 25.1342 25.8975 24.4347C26.1508 23.7352 26.1508 23.1442 26.0663 23.0116C25.9819 22.8789 25.801 22.8186 25.4995 22.6739Z" fill="white"/>
</svg>
