<svg width="30" height="31" viewBox="0 0 30 31" fill="none" xmlns="http://www.w3.org/2000/svg">
<path d="M26.9945 13.6226C27.0484 12.0622 26.7071 10.5134 26.0024 9.12012C25.5243 8.54842 24.8607 8.16261 24.1273 8.02993C21.0939 7.75393 18.0479 7.64112 15.0024 7.69197C11.968 7.64072 8.93307 7.74989 5.91023 8.01903C5.31261 8.12774 4.75956 8.40805 4.31856 8.82576C3.33739 9.73062 3.22837 11.2787 3.11935 12.5869C2.96022 14.939 2.96022 17.2992 3.11935 19.6513C3.15129 20.3876 3.26092 21.1185 3.4464 21.8317C3.57785 22.3823 3.8438 22.8918 4.22044 23.3144C4.66444 23.7542 5.23037 24.0505 5.84482 24.1647C8.19511 24.4555 10.5634 24.5758 12.931 24.5245C16.7467 24.579 20.0936 24.5245 24.051 24.2192C24.6801 24.1107 25.2616 23.8142 25.719 23.3689C26.0238 23.0633 26.2518 22.6896 26.384 22.2787C26.7735 21.0822 26.965 19.8302 26.9509 18.572C26.9945 17.9615 26.9945 14.2767 26.9945 13.6226ZM12.5386 19.2262V12.4779L18.9925 15.8684C17.1828 16.8714 14.7953 18.0052 12.5386 19.2262Z" fill="#7C7CE0"/>
</svg>
