<svg width="300" height="53" viewBox="0 0 300 53" fill="none" xmlns="http://www.w3.org/2000/svg">
<g clip-path="url(#clip0_5_2473)">
<path d="M50.51 52.0792V1.65903H23.2886L0.0898552 24.8578L0.0898438 52.0792H50.51Z" fill="#2F2722"/>
<path fill-rule="evenodd" clip-rule="evenodd" d="M24.4308 35.1147V50.3406L13.9991 50.3405V30.7939L29.2249 15.568H48.7717V25.9998H33.5459L24.4308 35.1147Z" fill="#D62727"/>
<path fill-rule="evenodd" clip-rule="evenodd" d="M12.2604 29.8989V50.3406L1.82861 50.3405L1.82863 25.5779L24.009 3.39764H48.7716V13.8294H28.3299L12.2604 29.8989Z" fill="#FFD43E"/>
<path fill-rule="evenodd" clip-rule="evenodd" d="M36.6008 40.3307V50.3406H26.1689V36.0097L34.4402 27.7384H48.7712V38.1702H38.7613L36.6008 40.3307Z" fill="#EA721B"/>
<path d="M175.095 19.6789V42.5658H181.85V19.6789H175.095Z" fill="#2F2722"/>
<path d="M174.87 9.35722V16.6273H182.075V9.35722H174.87Z" fill="#2F2722"/>
<path fill-rule="evenodd" clip-rule="evenodd" d="M200.338 43.0147C198.146 43.0147 196.39 42.5061 195.069 41.4889C194.143 40.7758 193.482 39.8787 193.088 38.7981V51.7656H186.333V19.6789H192.952V23.3515C193.419 22.2834 194.184 21.4034 195.25 20.711C196.721 19.7237 198.537 19.23 200.699 19.23C202.77 19.23 204.556 19.7237 206.057 20.711C207.589 21.6683 208.76 23.0297 209.57 24.7947C210.411 26.5598 210.831 28.6392 210.831 31.0326C210.831 33.456 210.396 35.5651 209.525 37.3602C208.654 39.1553 207.439 40.5465 205.877 41.5337C204.316 42.5211 202.47 43.0147 200.338 43.0147ZM198.446 37.6294C200.038 37.6294 201.329 37.0611 202.32 35.9242C203.31 34.7873 203.806 33.1717 203.806 31.0775C203.806 28.9833 203.295 27.3827 202.274 26.2757C201.284 25.1687 199.978 24.6152 198.357 24.6152C196.795 24.6152 195.504 25.1837 194.483 26.3206C193.492 27.4276 192.997 29.0281 192.997 31.1223C192.997 33.2165 193.492 34.8321 194.483 35.969C195.504 37.0761 196.825 37.6294 198.446 37.6294Z" fill="#2F2722"/>
<path d="M215.102 40.9952C217.084 42.3416 219.756 43.0147 223.119 43.0147C226.331 43.0147 228.808 42.4013 230.549 41.1747C232.321 39.9181 233.206 38.1679 233.206 35.9242C233.206 34.159 232.606 32.6333 231.405 31.3467C230.234 30.0304 228.493 29.1329 226.181 28.6542L222.038 27.8014C220.927 27.5622 220.132 27.2928 219.652 26.9937C219.17 26.6646 218.931 26.2308 218.931 25.6923C218.931 25.064 219.216 24.5854 219.787 24.2563C220.387 23.8971 221.288 23.7178 222.488 23.7178C223.809 23.7178 224.83 23.9271 225.551 24.346C226.271 24.7349 226.692 25.3184 226.811 26.0962H232.847C232.666 23.9421 231.676 22.2667 229.874 21.0701C228.072 19.8434 225.655 19.23 222.624 19.23C219.561 19.23 217.175 19.8582 215.463 21.1148C213.751 22.3414 212.897 24.0618 212.897 26.2757C212.897 28.1007 213.542 29.5965 214.833 30.7634C216.124 31.9002 218.135 32.7528 220.867 33.3213L224.56 34.0843C225.551 34.2937 226.226 34.5629 226.586 34.892C226.976 35.1913 227.172 35.625 227.172 36.1934C227.172 36.9413 226.842 37.5247 226.181 37.9436C225.551 38.3326 224.53 38.5271 223.119 38.5271C221.558 38.5271 220.326 38.2727 219.426 37.7641C218.555 37.2256 218.045 36.4477 217.895 35.4305H211.86C212.041 37.7941 213.121 39.6489 215.102 40.9952Z" fill="#2F2722"/>
<path d="M262.351 19.6789H268.971V23.8555C269.682 22.5938 270.614 21.5605 271.763 20.756C273.206 19.7386 274.931 19.23 276.943 19.23C279.344 19.23 281.206 19.9032 282.527 21.2496C283.234 21.9545 283.756 22.7536 284.094 23.6472C284.798 22.4796 285.717 21.5158 286.85 20.756C288.352 19.7386 290.153 19.23 292.254 19.23C294.746 19.23 296.652 19.9331 297.973 21.3392C299.324 22.7155 300 24.5255 300 26.7693V42.5658H293.245V28.0258C293.245 26.8591 292.93 26.0065 292.3 25.4679C291.698 24.8995 290.844 24.6152 289.732 24.6152C288.771 24.6152 287.887 24.8396 287.075 25.2885C286.295 25.7072 285.679 26.3206 285.229 27.1283C284.778 27.9062 284.554 28.8337 284.554 29.9108V42.5658H277.799V28.0258C277.799 26.8591 277.484 26.0065 276.852 25.4679C276.252 24.8995 275.396 24.6152 274.286 24.6152C273.325 24.6152 272.439 24.8396 271.629 25.2885C270.848 25.7072 270.233 26.3206 269.782 27.1283C269.332 27.9062 269.106 28.8337 269.106 29.9108V42.5658H262.351V19.6789Z" fill="#2F2722"/>
<path d="M243.153 43.0146C241.532 43.0146 240.135 42.6706 238.964 41.9825C237.823 41.2644 236.953 40.322 236.352 39.1553C235.752 37.9584 235.452 36.6272 235.452 35.1611V19.6787H242.207V33.8598C242.207 35.1164 242.522 36.0587 243.153 36.687C243.783 37.3152 244.669 37.6293 245.81 37.6293C246.831 37.6293 247.731 37.3901 248.511 36.9113C249.292 36.4327 249.908 35.7745 250.358 34.9368C250.838 34.0693 251.079 33.0819 251.079 31.975V19.6787H257.834V42.5658H251.213V38.3728C250.498 39.6204 249.552 40.6592 248.376 41.4889C246.935 42.506 245.195 43.0146 243.153 43.0146Z" fill="#2F2722"/>
<path fill-rule="evenodd" clip-rule="evenodd" d="M159.803 43.0147C157.281 43.0147 155.06 42.5211 153.139 41.5337C151.247 40.5165 149.761 39.1104 148.68 37.3153C147.629 35.4904 147.103 33.396 147.103 31.0326C147.103 28.6692 147.629 26.6048 148.68 24.8396C149.761 23.0744 151.247 21.6983 153.139 20.711C155.06 19.7237 157.281 19.23 159.803 19.23C162.355 19.23 164.577 19.7237 166.469 20.711C168.39 21.6983 169.876 23.0744 170.927 24.8396C171.977 26.6048 172.503 28.6692 172.503 31.0326C172.503 33.396 171.962 35.4904 170.882 37.3153C169.83 39.1104 168.344 40.5165 166.423 41.5337C164.532 42.5211 162.325 43.0147 159.803 43.0147ZM159.803 37.7192C160.854 37.7192 161.8 37.45 162.64 36.9115C163.511 36.3729 164.202 35.61 164.711 34.6226C165.222 33.6055 165.478 32.3938 165.478 30.9877C165.478 28.9234 164.922 27.3378 163.811 26.2308C162.73 25.094 161.395 24.5255 159.803 24.5255C158.212 24.5255 156.861 25.094 155.75 26.2308C154.669 27.3677 154.129 28.9533 154.129 30.9877C154.129 32.3938 154.384 33.6055 154.895 34.6226C155.405 35.61 156.081 36.3729 156.921 36.9115C157.791 37.45 158.753 37.7192 159.803 37.7192Z" fill="#2F2722"/>
<path fill-rule="evenodd" clip-rule="evenodd" d="M124.32 50.1949C126.332 51.5413 128.928 52.2144 132.111 52.2144C135.924 52.2144 138.925 51.257 141.117 49.3423C143.309 47.4575 144.405 44.8695 144.405 41.5786V19.6789H137.784V23.593C137.385 22.4465 136.68 21.5009 135.668 20.756C134.317 19.7386 132.561 19.23 130.399 19.23C128.298 19.23 126.451 19.7087 124.86 20.6661C123.299 21.6234 122.083 22.9698 121.212 24.705C120.342 26.4403 119.906 28.4747 119.906 30.8082C119.906 33.1119 120.327 35.1164 121.167 36.8217C122.008 38.5271 123.179 39.8584 124.68 40.8156C126.211 41.7431 127.998 42.2068 130.039 42.2068C132.17 42.2068 133.956 41.7282 135.398 40.7709C136.456 40.046 137.207 39.1356 137.65 38.0399V41.6684C137.65 43.3138 137.184 44.5255 136.254 45.3034C135.323 46.0813 133.837 46.4702 131.796 46.4702C130.564 46.4702 129.543 46.3206 128.733 46.0214C127.953 45.7223 127.442 45.2884 127.201 44.72H120.807C121.167 47.0236 122.338 48.8487 124.32 50.1949ZM136.254 35.4305C135.263 36.5076 133.971 37.0461 132.381 37.0461C130.76 37.0461 129.439 36.5076 128.418 35.4305C127.427 34.3535 126.932 32.7978 126.932 30.7634C126.932 28.7289 127.427 27.1583 128.418 26.0512C129.439 24.9444 130.729 24.3909 132.291 24.3909C133.912 24.3909 135.218 24.9444 136.209 26.0512C137.23 27.1283 137.74 28.684 137.74 30.7185C137.74 32.7528 137.245 34.3235 136.254 35.4305Z" fill="#2F2722"/>
<path fill-rule="evenodd" clip-rule="evenodd" d="M105.928 43.0147C103.406 43.0147 101.184 42.5211 99.2628 41.5337C97.3714 40.5165 95.8853 39.1104 94.8045 37.3153C93.7537 35.4904 93.2283 33.396 93.2283 31.0326C93.2283 28.6692 93.7537 26.6048 94.8045 24.8396C95.8853 23.0744 97.3714 21.6983 99.2628 20.711C101.184 19.7237 103.406 19.23 105.928 19.23C108.48 19.23 110.702 19.7237 112.593 20.711C114.514 21.6983 116 23.0744 117.051 24.8396C118.102 26.6048 118.627 28.6692 118.627 31.0326C118.627 33.396 118.087 35.4904 117.006 37.3153C115.955 39.1104 114.469 40.5165 112.548 41.5337C110.656 42.5211 108.45 43.0147 105.928 43.0147ZM105.928 37.7192C106.979 37.7192 107.924 37.45 108.765 36.9115C109.636 36.3729 110.326 35.61 110.837 34.6226C111.347 33.6055 111.602 32.3938 111.602 30.9877C111.602 28.9234 111.047 27.3378 109.936 26.2308C108.855 25.094 107.519 24.5255 105.928 24.5255C104.337 24.5255 102.986 25.094 101.875 26.2308C100.794 27.3677 100.254 28.9533 100.254 30.9877C100.254 32.3938 100.509 33.6055 101.019 34.6226C101.53 35.61 102.205 36.3729 103.046 36.9115C103.916 37.45 104.877 37.7192 105.928 37.7192Z" fill="#2F2722"/>
<path d="M70.5883 10.2547V42.5658H93.1052V37.2704H77.5234V10.2547H70.5883Z" fill="#2F2722"/>
</g>
<defs>
<clipPath id="clip0_5_2473">
<rect width="300" height="51.6807" fill="white" transform="translate(0 0.533691)"/>
</clipPath>
</defs>
</svg>
